<mxfile host="app.diagrams.net" modified="2021-12-21T03:09:38.583Z" agent="5.0 (Windows NT 10.0; Win64; x64) AppleWebKit/537.36 (KHTML, like Gecko) Chrome/96.0.4664.9 Safari/537.36" etag="GwNhTfsPqdX2tJk022yR" version="16.0.0" type="github">
  <diagram id="Sgw3oxmD6Y5C00CyuahM" name="Page-1">
    <mxGraphModel dx="1422" dy="706" grid="1" gridSize="10" guides="1" tooltips="1" connect="1" arrows="1" fold="1" page="1" pageScale="1" pageWidth="827" pageHeight="1169" math="0" shadow="0">
      <root>
        <mxCell id="0" />
        <mxCell id="1" parent="0" />
      </root>
    </mxGraphModel>
  </diagram>
</mxfile>
